# xmcd CD database file
#
# Track frame offsets:
#	150
#	19990
#	35164
#	51789
#	65693
#	81842
#	97512
#	116956
#	134436
#	153657
#	168150
#	180145
#	201080
#	209347
#
# Disc length: 3024 seconds
#
# Revision: 2
# Processed by: cddbd v1.5.2PL0 Copyright (c) Steve Scherf et al.
# Submitted via: CDex 1.51
#
DISCID=be0bce0e
DTITLE=Finch - Say Hello To Sunshine
DYEAR=2005
DGENRE=Rock
TTITLE0=Insomniatic Meat
TTITLE1=Revelation Song
TTITLE2=Brother Bleed Brother
TTITLE3=A Piece Of Mind
TTITLE4=Ink
TTITLE5=Fireflies
TTITLE6=Hopeless Host
TTITLE7=Reduced To Teeth
TTITLE8=A Man Alone
TTITLE9=Miro
TTITLE10=Ravenous
TTITLE11=Bitemarks And Bloodstains
TTITLE12=The Casket Of Roderick Usher
TTITLE13=Dreams Of Psilocybin
EXTD=YEAR: 2005
EXTT0=
EXTT1=
EXTT2=
EXTT3=
EXTT4=
EXTT5=
EXTT6=
EXTT7=
EXTT8=
EXTT9=
EXTT10=
EXTT11=
EXTT12=
EXTT13=
PLAYORDER=
